# Blender 4.5.0
# www.blender.org
mtllib chair.mtl
o Cube
v 0.235000 0.370000 -0.184100
v 0.235000 0.306000 -0.184100
v 0.235000 0.306000 0.164100
v -0.215000 0.370000 -0.184100
v -0.215000 0.306000 -0.184100
v -0.215000 0.370000 0.185862
v -0.215000 0.370000 -0.222789
v 0.235000 0.010000 -0.184100
v -0.215000 0.910000 -0.184100
v 0.235000 0.910000 -0.222789
v -0.215000 0.306000 0.227211
v -0.215000 0.010000 0.185862
v -0.230017 0.306000 -0.184096
v -0.230017 0.306000 0.185866
v 0.219983 0.306000 -0.184096
v -0.230017 0.370000 -0.184096
v -0.230017 0.306000 -0.222785
v -0.230017 0.010000 -0.184096
v 0.250696 0.370000 -0.184100
v 0.250696 0.306000 -0.184100
v 0.250696 0.306000 0.164100
v 0.250696 0.306000 0.205449
v 0.250696 0.010000 0.164100
v -0.227476 0.370000 -0.184100
vn -1.0000 -0.0000 -0.0000
vn -0.0000 0.0715 0.9974
vn -0.0000 -1.0000 -0.0000
vn -0.0000 -0.0000 1.0000
vn -0.9661 0.2267 0.1235
vn -0.9494 -0.2079 0.2355
vn -0.6831 -0.0189 0.7301
vn -0.9515 0.0220 -0.3068
vn -0.7071 -0.7072 -0.0000
vn -0.0000 1.0000 -0.0000
vn 0.0002 -0.0000 1.0000
vn -0.0404 -0.1382 0.9896
vn 0.0462 -0.1382 0.9893
vn -0.9107 0.2137 -0.3535
vn -0.9997 0.0256 0.0044
vt 0.375000 0.250000
vt 0.625000 0.500000
vt 0.625000 0.250000
vt 0.603746 0.000101
vt 0.621581 0.396124
vt 0.603729 0.396124
vt 0.875000 0.500000
vt 0.000079 0.421191
vt 0.074845 0.420856
vt 0.071169 0.470750
vt 0.074863 0.000082
vt 0.091942 0.000079
vt 0.375000 0.500000
vt 0.125000 0.500000
vt 0.410542 0.451429
vt 0.104726 0.999921
vt 0.621598 0.000102
vt 0.444098 0.980600
vt 0.002073 0.000079
s 0
usemtl Material
f 13/1/1 17/1/1 18/1/1
f 1/2/2 19/2/2 10/2/2
f 13/1/1 16/3/1 17/1/1
s 1
f 2/4/3 21/5/3 3/6/3
s 0
f 4/7/4 9/7/4 24/7/4
s 1
f 6/8/5 14/9/6 11/10/7
s 0
f 24/3/8 9/7/8 7/3/8
s 1
f 13/11/9 5/12/3 14/9/6
s 0
f 2/13/10 5/14/10 13/14/10 15/13/10
f 8/13/11 2/13/11 15/13/11
s 1
f 12/15/12 22/16/13 11/10/7
s 0
f 4/3/10 7/3/10 16/3/10
f 15/13/4 13/14/4 18/14/4
s 1
f 2/4/3 20/17/3 21/5/3
s 0
f 7/3/3 4/3/3 24/3/3
s 1
f 12/15/12 23/18/13 22/16/13
s 0
f 2/13/4 8/13/4 20/13/4
f 4/7/4 1/2/4 9/7/4
f 16/3/14 7/3/14 17/1/14
s 1
f 14/9/6 16/19/15 13/11/9
f 14/9/6 6/8/5 16/19/15
s 0
f 8/13/4 15/13/4 18/14/4
s 1
f 11/10/7 14/9/6 12/15/12
f 5/12/3 3/6/3 14/9/6
f 5/12/3 2/4/3 3/6/3
o Cube.001
v -0.215000 0.010000 0.185862
v -0.215000 0.306000 0.227211
v -0.215000 0.370000 -0.184100
v 0.235000 0.370000 -0.184100
v 0.250696 0.010000 0.164100
v 0.250696 0.306000 0.205449
v 0.235000 0.910000 -0.222789
v 0.250696 0.306000 0.164100
v -0.215000 0.910000 -0.184100
v 0.235000 0.010000 -0.184100
v 0.235000 0.306000 0.164100
v 0.250696 0.370000 0.164100
v -0.215000 0.370000 -0.222789
v 0.250696 0.306000 -0.184100
v 0.235000 0.306000 -0.222789
v 0.250696 0.370000 -0.184100
v -0.230017 0.010000 -0.184096
v -0.230017 0.306000 -0.222785
v -0.230017 0.370000 -0.184096
v -0.215000 0.370000 0.185862
v -0.230017 0.306000 0.185866
vn 0.0392 0.5423 0.8393
vn 0.0854 0.0712 0.9938
vn 0.9255 -0.0491 -0.3755
vn 1.0000 -0.0000 -0.0000
vn -0.0468 -0.0024 -0.9989
vn -0.0467 -0.0025 -0.9989
vn 0.9266 -0.0000 -0.3759
vn -0.0000 1.0000 -0.0000
vn -0.0000 -0.0000 -1.0000
vn -0.0000 -0.1296 -0.9916
vn -0.0854 0.0712 -0.9938
vn -0.0000 -0.0001 -1.0000
vt 0.375000 1.000000
vt 0.375000 0.750000
vt 0.625000 0.750000
vt 0.875000 0.750000
vt 0.625000 0.500000
vt 0.875000 0.500000
vt 0.375000 0.500000
vt 0.125000 0.750000
vt 0.625000 0.250000
vt 0.375000 0.250000
s 0
usemtl Material
f 26/20/16 30/21/16 36/22/16 44/23/16
f 31/24/17 33/25/17 28/24/17
f 39/26/18 38/26/18 34/26/18
f 38/26/19 40/24/19 36/22/19 32/21/19
f 45/27/20 35/21/20 25/27/20
f 25/27/21 35/21/21 29/21/21
f 31/24/22 40/24/22 38/26/22 39/26/22
f 44/23/23 27/25/23 43/25/23
f 32/21/19 30/21/19 29/21/19
f 37/28/24 31/24/24 39/26/24
f 32/21/19 36/22/19 30/21/19
f 34/26/25 41/29/25 42/29/25 39/26/25
f 40/24/23 28/24/23 36/22/23
f 33/25/26 31/24/26 37/28/26
f 37/28/27 39/26/27 42/29/27
f 35/21/24 32/21/24 29/21/24
f 28/24/23 27/25/23 44/23/23
f 36/22/23 28/24/23 44/23/23
