# Blender 4.5.0
# www.blender.org
mtllib chair.mtl
o Cube
v 0.235000 0.370000 -0.184100
v 0.235000 0.306000 -0.184100
v 0.235000 0.306000 0.164100
v -0.215000 0.370000 -0.184100
v -0.215000 0.306000 -0.184100
v -0.215000 0.370000 0.185862
v -0.215000 0.370000 -0.222789
v 0.235000 0.010000 -0.184100
v -0.215000 0.910000 -0.184100
v 0.235000 0.910000 -0.222789
v -0.215000 0.306000 0.227211
v -0.215000 0.010000 0.185862
v -0.230017 0.306000 -0.184096
v -0.230017 0.306000 0.185866
v 0.219983 0.306000 -0.184096
v -0.230017 0.370000 -0.184096
v -0.230017 0.306000 -0.222785
v -0.230017 0.010000 -0.184096
v 0.250696 0.370000 -0.184100
v 0.250696 0.306000 -0.184100
v 0.250696 0.306000 0.164100
v 0.250696 0.306000 0.205449
v 0.250696 0.010000 0.164100
v -0.227476 0.370000 -0.184100
v -0.222508 0.158000 0.185864
v 0.010000 0.306000 -0.184100
v -0.222508 0.370000 0.000883
v -0.222508 0.306000 -0.184098
v -0.230017 0.338000 -0.184096
v -0.215000 0.338000 0.206537
v 0.017848 0.010000 0.174981
v 0.017848 0.306000 0.216330
v 0.002492 0.306000 0.174983
v 0.250696 0.306000 -0.010000
v 0.242848 0.306000 -0.184100
v 0.242848 0.306000 0.164100
v 0.250696 0.158000 0.184774
vn -1.0000 -0.0000 -0.0000
vn -0.0000 0.0715 0.9974
vn -0.0000 -0.0000 1.0000
vn -0.9515 0.0220 -0.3068
vn -0.0000 1.0000 -0.0000
vn 0.0002 -0.0000 1.0000
vn -0.0000 -1.0000 -0.0000
vn -0.9107 0.2137 -0.3535
vt 0.375000 0.250000
vt 0.625000 0.500000
vt 0.500000 0.250000
vt 0.625000 0.250000
vt 0.875000 0.500000
vt 0.375000 0.500000
vt 0.250000 0.500000
vt 0.125000 0.500000
s 0
usemtl Material
f 13/1/1 17/1/1 18/1/1
f 1/2/2 19/2/2 10/2/2
f 13/1/1 29/3/1 16/4/1 17/1/1
f 4/5/3 9/5/3 24/5/3
f 24/4/4 9/5/4 7/4/4
f 2/6/5 26/7/5 5/8/5 28/8/5 13/8/5 15/6/5
f 8/6/6 2/6/6 15/6/6
f 4/4/5 7/4/5 16/4/5
f 15/6/3 13/8/3 18/8/3
f 7/4/7 4/4/7 24/4/7
f 2/6/3 8/6/3 20/6/3 35/6/3
f 4/5/3 1/2/3 9/5/3
f 16/4/8 7/4/8 17/1/8
f 8/6/3 15/6/3 18/8/3
l 25 14
l 21 34
l 3 33
l 22 32
l 23 31
l 27 6
l 11 30
l 30 6
l 31 12
l 32 11
l 33 14
l 34 20
l 36 3
l 16 27
l 37 23
l 12 25
l 21 36
l 22 37
o Cube.001
v -0.215000 0.010000 0.185862
v -0.215000 0.306000 0.227211
v -0.215000 0.370000 -0.184100
v 0.235000 0.370000 -0.184100
v 0.250696 0.010000 0.164100
v 0.250696 0.306000 0.205449
v 0.235000 0.910000 -0.222789
v 0.250696 0.306000 0.164100
v -0.215000 0.910000 -0.184100
v 0.235000 0.010000 -0.184100
v 0.235000 0.306000 0.164100
v 0.250696 0.370000 0.164100
v -0.215000 0.370000 -0.222789
v 0.250696 0.306000 -0.184100
v 0.235000 0.306000 -0.222789
v 0.250696 0.370000 -0.184100
v -0.230017 0.010000 -0.184096
v -0.230017 0.306000 -0.222785
v -0.230017 0.370000 -0.184096
v -0.215000 0.370000 0.185862
v -0.230017 0.306000 0.185866
vn 0.0392 0.5423 0.8393
vn 0.0854 0.0712 0.9938
vn 0.9255 -0.0491 -0.3755
vn 1.0000 -0.0000 -0.0000
vn -0.0468 -0.0024 -0.9989
vn -0.0467 -0.0025 -0.9989
vn 0.9266 -0.0000 -0.3759
vn -0.0000 1.0000 -0.0000
vn -0.0000 -0.0000 -1.0000
vn -0.0000 -0.1296 -0.9916
vn -0.0854 0.0712 -0.9938
vn -0.0000 -0.0001 -1.0000
vt 0.375000 1.000000
vt 0.375000 0.750000
vt 0.625000 0.750000
vt 0.875000 0.750000
vt 0.625000 0.500000
vt 0.875000 0.500000
vt 0.375000 0.500000
vt 0.125000 0.750000
vt 0.625000 0.250000
vt 0.375000 0.250000
s 0
usemtl Material
f 39/9/9 43/10/9 49/11/9 57/12/9
f 44/13/10 46/14/10 41/13/10
f 52/15/11 51/15/11 47/15/11
f 51/15/12 53/13/12 49/11/12 45/10/12
f 58/16/13 48/10/13 38/16/13
f 38/16/14 48/10/14 42/10/14
f 44/13/15 53/13/15 51/15/15 52/15/15
f 57/12/16 40/14/16 56/14/16
f 45/10/12 43/10/12 42/10/12
f 50/17/17 44/13/17 52/15/17
f 45/10/12 49/11/12 43/10/12
f 47/15/18 54/18/18 55/18/18 52/15/18
f 53/13/16 41/13/16 49/11/16
f 46/14/19 44/13/19 50/17/19
f 50/17/20 52/15/20 55/18/20
f 48/10/17 45/10/17 42/10/17
f 41/13/16 40/14/16 57/12/16
f 49/11/16 41/13/16 57/12/16
